<svg id="Layer_1" enable-background="new 0 0 24 24" height="300" viewBox="0 0 24 24" width="300" xmlns="http://www.w3.org/2000/svg" version="1.1" xmlns:xlink="http://www.w3.org/1999/xlink" xmlns:svgjs="http://svgjs.dev/svgjs"><g width="100%" height="100%" transform="matrix(-1,0,0,-1,23.999999046325684,23.999999046325684)"><g><path d="m8 14.8c-.2 0-.4-.1-.5-.2l-2-2c-.3-.3-.3-.8 0-1.1l2-2c.3-.3.8-.3 1.1 0s.3.8 0 1.1l-1.5 1.4 1.5 1.5c.3.3.3.8 0 1.1-.2.1-.4.2-.6.2z" fill="#666666" fill-opacity="1" data-original-color="#000000ff" stroke="none" stroke-opacity="1"/></g><g><path d="m18 6.8h-12c-.4 0-.8-.4-.8-.8s.4-.8.8-.8h12c.4 0 .8.3.8.8s-.4.8-.8.8z" fill="#666666" fill-opacity="1" data-original-color="#000000ff" stroke="none" stroke-opacity="1"/></g><g><path d="m18 10.8h-7c-.4 0-.8-.3-.8-.8s.3-.8.8-.8h7c.4 0 .8.3.8.8s-.4.8-.8.8z" fill="#666666" fill-opacity="1" data-original-color="#000000ff" stroke="none" stroke-opacity="1"/></g><g><path d="m18 14.8h-7c-.4 0-.8-.3-.8-.8s.3-.8.8-.8h7c.4 0 .8.3.8.8s-.4.8-.8.8z" fill="#666666" fill-opacity="1" data-original-color="#000000ff" stroke="none" stroke-opacity="1"/></g><g><path d="m18 18.8h-12c-.4 0-.8-.3-.8-.8s.3-.8.8-.8h12c.4 0 .8.3.8.8s-.4.8-.8.8z" fill="#666666" fill-opacity="1" data-original-color="#000000ff" stroke="none" stroke-opacity="1"/></g></g></svg>