<svg id="Layer_1" enable-background="new 0 0 468 468" viewBox="0 0 468 468" xmlns="http://www.w3.org/2000/svg" width="300" height="300" version="1.1" xmlns:xlink="http://www.w3.org/1999/xlink" xmlns:svgjs="http://svgjs.dev/svgjs"><g width="100%" height="100%" transform="matrix(1,0,0,1,0,0)"><g><g><path d="m199.962 157.143c-6.627 0-12-5.373-12-12v-12.183c0-6.627 5.373-12 12-12s12 5.373 12 12v12.182c0 6.628-5.372 12.001-12 12.001z" fill="#ffffff" fill-opacity="1" data-original-color="#000000ff" stroke="none" stroke-opacity="1"/><path d="m158.87 175.271c-3.057 0-6.115-1.161-8.455-3.485l-8.674-8.614c-4.703-4.67-4.729-12.267-.059-16.971 4.67-4.701 12.268-4.728 16.97-.059l8.674 8.614c7.691 7.118 1.829 20.88-8.456 20.515z" fill="#ffffff" fill-opacity="1" data-original-color="#000000ff" stroke="none" stroke-opacity="1"/><path d="m142.721 213.993h-12.267c-6.627 0-12-5.373-12-12s5.373-12 12-12h12.267c6.627 0 12 5.373 12 12s-5.373 12-12 12z" fill="#ffffff" fill-opacity="1" data-original-color="#000000ff" stroke="none" stroke-opacity="1"/><path d="m269.471 213.993h-12.267c-6.627 0-12-5.373-12-12s5.373-12 12-12h12.267c6.627 0 12 5.373 12 12s-5.373 12-12 12z" fill="#ffffff" fill-opacity="1" data-original-color="#000000ff" stroke="none" stroke-opacity="1"/><path d="m241.054 175.271c-10.287.365-16.145-13.398-8.456-20.514l8.674-8.614c4.703-4.67 12.3-4.644 16.971.059 4.67 4.702 4.644 12.301-.059 16.971l-8.674 8.614c-2.341 2.322-5.398 3.484-8.456 3.484z" fill="#ffffff" fill-opacity="1" data-original-color="#000000ff" stroke="none" stroke-opacity="1"/></g><path d="m282.803 467.995h-41.111c-36.942.412-72.104-23.843-84.868-58.513l-19.753-51.857-21.884-41.292c-.101-.19-.197-.384-.288-.579-7.293-15.761-1.169-34.643 13.942-42.987 12.579-7.228 29.57-4.469 39.326 6.142v-76.136c-.362-17.512 15.067-32.945 32.578-32.573 17.942.009 32.539 14.621 32.539 32.573v37.449c2.457-.617 5.027-.944 7.671-.944 11.014 0 20.733 5.679 26.409 14.276 3.953-1.784 8.334-2.778 12.941-2.778 14.215 0 26.457 8.652 31.786 20.993 3.294-1.169 6.836-1.806 10.524-1.806 18.457 0 33.474 15.093 33.474 33.643v91.058c.002 40.435-32.875 73.331-73.286 73.331zm-146.228-162.556 22.049 41.602c.231.436.435.886.611 1.348l20.017 52.55c9.81 25.754 34.902 43.056 62.44 43.056h41.111c27.178 0 49.288-22.13 49.288-49.331v-91.058c0-5.317-4.25-9.643-9.474-9.643-4.234 0-7.679 3.515-7.679 7.834v26.224c0 6.627-5.372 12-12 12s-12-5.373-12-12v-42.434c0-5.962-4.77-10.811-10.632-10.811-4.234 0-7.679 3.515-7.679 7.834v42.915c0 6.627-5.373 12-12 12s-12-5.373-12-12v-54.418c0-4.316-3.441-7.828-7.671-7.828s-7.671 3.512-7.671 7.828v53.504c0 6.627-5.373 12-12 12s-12-5.373-12-12v-121.838c0-4.725-3.837-8.57-8.553-8.573-4.606-.099-8.661 3.967-8.564 8.573v116.379c0 5.337-3.525 10.033-8.65 11.522-5.126 1.492-10.618-.584-13.479-5.088l-17.565-27.652c-2.056-4.487-7.675-6.676-12.031-4.157-4.066 2.245-5.733 7.326-3.868 11.662z" fill="#ffffff" fill-opacity="1" data-original-color="#000000ff" stroke="none" stroke-opacity="1"/><g><path d="m423.909 105.983h-379.909c-6.627 0-12-5.373-12-12v-81.983c0-6.627 5.373-12 12-12h379.909c6.627 0 12 5.373 12 12v81.983c-.001 6.627-5.373 12-12 12zm-367.909-24h355.909v-57.983h-355.909z" fill="#ffffff" fill-opacity="1" data-original-color="#000000ff" stroke="none" stroke-opacity="1"/><path d="m423.909 386.641h-28.829c-6.627 0-12-5.373-12-12s5.372-12 12-12h16.828v-179.659c0-6.627 5.373-12 12-12s12 5.373 12 12v191.659c0 6.627-5.372 12-11.999 12z" fill="#ffffff" fill-opacity="1" data-original-color="#000000ff" stroke="none" stroke-opacity="1"/><path d="m100.406 386.641h-56.406c-6.627 0-12-5.373-12-12v-191.659c0-6.627 5.373-12 12-12s12 5.373 12 12v179.659h44.406c6.627 0 12 5.373 12 12s-5.373 12-12 12z" fill="#ffffff" fill-opacity="1" data-original-color="#000000ff" stroke="none" stroke-opacity="1"/><ellipse cx="423.003" cy="139.718" rx="12.997" ry="13" fill="#ffffff" fill-opacity="1" data-original-color="#000000ff" stroke="none" stroke-opacity="1"/><ellipse cx="45.094" cy="138.718" rx="12.997" ry="13" fill="#ffffff" fill-opacity="1" data-original-color="#000000ff" stroke="none" stroke-opacity="1"/><g><path d="m284.113 65.518h-141.746c-6.627 0-12-5.373-12-12s5.373-12 12-12h141.745c6.627 0 12 5.373 12 12s-5.372 12-11.999 12z" fill="#ffffff" fill-opacity="1" data-original-color="#000000ff" stroke="none" stroke-opacity="1"/><g><ellipse cx="373.05" cy="53.518" rx="12" ry="11.995" fill="#ffffff" fill-opacity="1" data-original-color="#000000ff" stroke="none" stroke-opacity="1"/><ellipse cx="333.051" cy="53.518" rx="12" ry="11.995" fill="#ffffff" fill-opacity="1" data-original-color="#000000ff" stroke="none" stroke-opacity="1"/></g></g></g></g><g/><g/><g/><g/><g/><g/><g/><g/><g/><g/><g/><g/><g/><g/><g/></g></svg>