<svg id="Layer_1" enable-background="new 0 0 512 512" height="300" viewBox="0 0 512 512" width="300" xmlns="http://www.w3.org/2000/svg" version="1.1" xmlns:xlink="http://www.w3.org/1999/xlink" xmlns:svgjs="http://svgjs.dev/svgjs"><g width="100%" height="100%" transform="matrix(1,0,0,1,0,0)"><g id="Layer_2_00000023275449894773177820000002190411021810468994_"><g id="Layer_1-2"><g id="_06.Menu"><path d="m50 206h412c27.6 0 50 22.4 50 50 0 27.6-22.4 50-50 50h-412c-27.6 0-50-22.4-50-50 0-27.6 22.4-50 50-50z" fill="#a0a0a0" fill-opacity="1" data-original-color="#000000ff" stroke="none" stroke-opacity="1"/><path d="m50 36h412c27.6 0 50 22.4 50 50 0 27.6-22.4 50-50 50h-412c-27.6 0-50-22.4-50-50 0-27.6 22.4-50 50-50z" fill="#a0a0a0" fill-opacity="1" data-original-color="#000000ff" stroke="none" stroke-opacity="1"/><path d="m50 376h412c27.6 0 50 22.4 50 50 0 27.6-22.4 50-50 50h-412c-27.6 0-50-22.4-50-50 0-27.6 22.4-50 50-50z" fill="#a0a0a0" fill-opacity="1" data-original-color="#000000ff" stroke="none" stroke-opacity="1"/></g></g></g></g></svg>