<svg id="Line" height="300" viewBox="0 0 64 64" width="300" xmlns="http://www.w3.org/2000/svg" version="1.1" xmlns:xlink="http://www.w3.org/1999/xlink" xmlns:svgjs="http://svgjs.dev/svgjs"><g width="100%" height="100%" transform="matrix(1,0,0,1,0,0)"><path d="m56 6.25h-48a4.00458 4.00458 0 0 0 -4 4v34.5a4.00458 4.00458 0 0 0 4 4h20.13184l-3.5 7h-3.88184a1.00012 1.00012 0 0 0 .00005 2h22.49995a1.00018 1.00018 0 0 0 -.00007-2h-3.88177l-3.5-7h20.13184a4.00458 4.00458 0 0 0 4-4v-34.5a4.00458 4.00458 0 0 0 -4-4zm-48 2h48a2.002 2.002 0 0 1 2 2v30.0874h-52v-30.0874a2.002 2.002 0 0 1 2-2zm29.13184 47.5h-10.26368l3.5-7h3.26368zm18.86816-9h-48a2.002 2.002 0 0 1 -2-2v-2.4126h52v2.4126a2.002 2.002 0 0 1 -2 2z" fill="#ffffff" fill-opacity="1" data-original-color="#000000ff" stroke="none" stroke-opacity="1"/><path d="m33.5 43.544h-3a1.00018 1.00018 0 0 0 .00006 2h2.99994a1.00019 1.00019 0 0 0 0-2z" fill="#ffffff" fill-opacity="1" data-original-color="#000000ff" stroke="none" stroke-opacity="1"/><path d="m32 26.84814a2.60194 2.60194 0 0 0 1.573-.556l2.8352 1.63709a1.00016 1.00016 0 1 0 1-1.73242l-2.83233-1.63544a2.56517 2.56517 0 0 0 -1.57587-2.75265v-4.93518a1.00019 1.00019 0 0 0 -2 .00006v4.93512a2.62551 2.62551 0 0 0 1 5.03942zm0-2a.62.62 0 0 1 0-1.23974.62.62 0 0 1 0 1.23974z" fill="#ffffff" fill-opacity="1" data-original-color="#000000ff" stroke="none" stroke-opacity="1"/><path d="m32 35.794a11.51279 11.51279 0 0 0 11.5-11.5c-.63142-15.25642-22.3709-15.252-23 0a11.5128 11.5128 0 0 0 11.5 11.5zm0-21a9.5108 9.5108 0 0 1 9.5 9.5c-.52188 12.603-18.48 12.59936-19-.00008a9.51081 9.51081 0 0 1 9.5-9.49992z" fill="#ffffff" fill-opacity="1" data-original-color="#000000ff" stroke="none" stroke-opacity="1"/><path d="m48 17.294h6a1.00019 1.00019 0 0 0 -.00006-2h-5.99994a1.00019 1.00019 0 0 0 0 2z" fill="#ffffff" fill-opacity="1" data-original-color="#000000ff" stroke="none" stroke-opacity="1"/><path d="m48 33.294h6a1.00019 1.00019 0 0 0 -.00006-2h-5.99994a1.00019 1.00019 0 0 0 0 2z" fill="#ffffff" fill-opacity="1" data-original-color="#000000ff" stroke="none" stroke-opacity="1"/><path d="m10 17.294h6a1.00019 1.00019 0 0 0 -.00006-2h-5.99994a1.00019 1.00019 0 0 0 0 2z" fill="#ffffff" fill-opacity="1" data-original-color="#000000ff" stroke="none" stroke-opacity="1"/><path d="m10 33.294h6a1.00019 1.00019 0 0 0 -.00006-2h-5.99994a1.00019 1.00019 0 0 0 0 2z" fill="#ffffff" fill-opacity="1" data-original-color="#000000ff" stroke="none" stroke-opacity="1"/><path d="m48 25.294h6a1.00019 1.00019 0 0 0 -.00006-2h-5.99994a1.00019 1.00019 0 0 0 0 2z" fill="#ffffff" fill-opacity="1" data-original-color="#000000ff" stroke="none" stroke-opacity="1"/><path d="m10 25.294h6a1.00019 1.00019 0 0 0 -.00006-2h-5.99994a1.00019 1.00019 0 0 0 0 2z" fill="#ffffff" fill-opacity="1" data-original-color="#000000ff" stroke="none" stroke-opacity="1"/></g></svg>