<svg xmlns="http://www.w3.org/2000/svg" xmlns:xlink="http://www.w3.org/1999/xlink" version="1.1" id="Layer_1" x="0px" y="0px" viewBox="0 0 512 512" style="enable-background:new 0 0 512 512;" xml:space="preserve" width="300" height="300" xmlns:svgjs="http://svgjs.dev/svgjs"><g width="100%" height="100%" transform="matrix(1,0,0,1,0,0)"><g>
	<g>
		<g>
			<path style="" d="M256,168.884c28.275,0,51.2-22.925,51.2-51.2s-22.925-51.2-51.2-51.2s-51.2,22.925-51.2,51.2     S227.725,168.884,256,168.884z M256,81.767c19.869,0,35.916,16.048,35.916,35.916S275.869,153.6,256,153.6     s-35.916-16.048-35.916-35.916S236.131,81.767,256,81.767z" fill="#ffffff" fill-opacity="1" data-original-color="#000000ff" stroke="none" stroke-opacity="1"/>
		</g>
		<g>
			<path style="" d="M263.642,410.364v-76.418c0-4.585-3.057-7.642-7.642-7.642c-4.585,0-7.642,3.057-7.642,7.642     v76.418c0,4.585,3.057,7.642,7.642,7.642C260.585,418.006,263.642,414.949,263.642,410.364z" fill="#ffffff" fill-opacity="1" data-original-color="#000000ff" stroke="none" stroke-opacity="1"/>
		</g>
		<g>
			<path style="" d="M263.642,456.215v-15.284c0-4.585-3.057-7.642-7.642-7.642c-4.585,0-7.642,3.057-7.642,7.642     v15.284c0,4.585,3.057,7.642,7.642,7.642C260.585,463.857,263.642,460.8,263.642,456.215z" fill="#ffffff" fill-opacity="1" data-original-color="#000000ff" stroke="none" stroke-opacity="1"/>
		</g>
		<g>
			<path style="" d="M443.988,246.83c-31.331,0-56.549,25.218-56.549,56.549v48.908c0,4.585,3.057,7.642,7.642,7.642     h38.973v70.304h-56.549l-97.815-144.43c-5.349-7.642-13.755-12.227-23.69-12.227l0,0c-9.17,0-18.34,4.585-23.69,12.227     l-97.815,145.194c0,0,0,0-0.764,0H77.182v-70.304h38.973c4.585,0,7.642-3.057,7.642-7.642v-48.907     c0-31.331-25.218-56.549-56.549-56.549s-56.549,25.218-56.549,56.549v48.907c0,4.585,3.057,7.642,7.642,7.642h43.558v77.946     c0,4.585,3.057,7.642,7.642,7.642h54.257l-6.878,9.934c-6.113,8.406-6.878,19.869-1.528,29.039     c4.585,9.17,14.519,15.284,25.218,15.284h230.782c10.699,0,19.869-6.113,25.218-15.284c4.585-9.17,4.585-20.633-1.528-29.039     l-6.878-9.934h54.257c4.585,0,7.642-3.057,7.642-7.642v-78.71h43.558c4.585,0,7.642-3.057,7.642-7.642v-48.908     C500.537,272.048,475.319,246.83,443.988,246.83z M26.746,303.379c0-22.925,18.34-41.266,41.266-41.266     s41.266,18.34,41.266,41.266v41.266H26.746V303.379z M382.854,478.376c-2.293,4.585-6.878,6.878-11.463,6.878H140.609     c-5.349,0-9.17-2.293-11.463-6.878c-2.293-4.585-2.293-9.17,0.764-13.755l115.391-170.412c2.293-3.821,6.113-6.113,10.699-6.113     c4.585,0,8.406,2.293,10.699,6.113L382.09,464.621C385.146,468.442,385.146,473.791,382.854,478.376z M485.254,344.645h-82.531     v-41.266c0-22.925,18.34-41.266,41.266-41.266s41.266,18.34,41.266,41.266L485.254,344.645L485.254,344.645z" fill="#ffffff" fill-opacity="1" data-original-color="#000000ff" stroke="none" stroke-opacity="1"/>
		</g>
		<g>
			<path style="" d="M68.012,235.367c22.925,0,42.03-19.104,42.03-42.03c0-19.869-13.755-35.916-32.096-40.501V81.003     h97.815c-1.528,3.821-3.057,6.878-3.821,10.699l-15.284,3.057c-3.821,0.764-6.113,3.821-6.113,7.642v30.567     c0,3.821,2.293,6.878,6.113,7.642l15.284,2.293c1.528,5.349,3.821,10.699,6.878,16.048l-8.406,12.227     c-2.293,3.057-1.528,6.878,0.764,9.934l21.397,22.161c2.293,2.293,6.878,3.057,9.934,0.764l12.227-9.17     c5.349,3.057,10.699,5.349,16.048,6.878l2.293,15.284c0.764,3.821,3.821,6.113,7.642,6.113h30.567     c3.821,0,6.878-2.293,7.642-6.113l3.057-15.284c6.113-1.528,11.463-3.821,16.048-6.878l12.227,8.406     c3.057,2.293,6.878,1.528,9.934-0.764l22.161-22.161c2.293-2.293,3.057-6.878,0.764-9.934l-8.406-12.227     c3.057-5.349,5.349-10.699,6.878-16.048l15.284-2.293c3.821-0.764,6.113-3.821,6.113-7.642v-30.567     c0-3.821-2.293-6.878-6.113-7.642l-15.284-3.057c-0.764-3.821-2.293-6.878-3.821-10.699h97.815v72.597     c-18.34,4.585-32.096,20.633-32.096,40.501c0,22.925,19.104,42.03,42.03,42.03c22.925,0,42.03-19.104,42.03-42.03     c0-21.397-16.048-38.973-35.916-41.266V74.125c0-4.585-3.057-7.642-7.642-7.642H340.824l2.293-3.057     c2.293-3.057,1.528-6.878-0.764-9.934l-22.161-21.397c-3.057-3.057-6.878-3.057-9.934-1.528l-12.227,9.17     c-5.349-3.057-10.699-4.585-16.048-6.878l-3.057-15.284c-0.764-3.821-3.821-6.113-7.642-6.113h-30.567     c-3.821,0-6.878,2.293-7.642,6.113l-2.293,15.284c-5.349,1.528-11.463,3.821-16.048,6.878l-12.991-9.17     c-3.057-2.293-6.878-1.528-9.934,0.764l-21.397,22.161c-2.293,2.293-3.057,6.878-0.764,9.934l2.293,3.057H70.304     c-4.585,0-7.642,3.057-7.642,7.642v78.71c-20.633,3.057-35.916,19.869-35.916,41.266     C25.982,217.027,45.087,235.367,68.012,235.367z M470.734,194.101c0,14.519-12.227,26.746-26.746,26.746     s-26.746-12.227-26.746-26.746s12.227-26.746,26.746-26.746S470.734,178.818,470.734,194.101z M197.922,47.379l11.463,7.642     c2.293,1.528,5.349,1.528,8.406,0c6.878-3.821,13.755-6.878,21.397-8.406c3.057-0.764,5.349-3.057,5.349-6.113l2.293-13.755     h17.576l3.057,13.755c0,3.057,2.293,5.349,5.349,6.113c7.642,1.528,14.519,4.585,21.397,8.406c2.293,1.528,6.113,1.528,8.406,0     l11.463-7.642l12.991,12.991l-7.642,11.463c-1.528,2.293-1.528,6.113,0,8.406c3.821,6.878,6.878,13.755,8.406,21.397     c0.764,3.057,3.057,5.349,6.113,6.113l13.755,2.293v17.576l-13.755,2.293c-3.057,0.764-5.349,3.057-6.113,6.113     c-1.528,7.642-4.585,14.519-8.406,20.633c-1.528,2.293-1.528,6.113,0,8.406l7.642,11.463l-12.991,12.991l-11.463-7.642     c-2.293-1.528-6.113-1.528-8.406,0c-6.113,3.821-12.991,6.878-21.397,8.406c-3.057,0.764-5.349,3.057-6.113,6.113l-2.293,13.755     H246.83l-2.293-15.284c-0.764-3.057-3.057-5.349-6.113-6.113c-7.642-1.528-14.519-4.585-21.397-8.406     c-2.293-1.528-6.113-1.528-8.406,0l-11.463,7.642l-11.463-12.227l7.642-11.463c1.528-2.293,1.528-6.113,0-8.406     c-3.821-6.878-6.878-13.755-8.406-21.397c-0.764-3.057-3.057-5.349-6.113-6.113l-13.755-2.293v-17.576l13.755-2.293     c3.057-0.764,5.349-3.057,6.113-6.113c1.528-7.642,4.585-14.519,8.406-21.397c1.528-2.293,1.528-6.113,0-8.406l-7.642-11.463     L197.922,47.379z M68.012,167.355c14.519,0,26.746,12.227,26.746,26.746s-12.227,26.746-26.746,26.746     s-26.746-12.227-26.746-26.746S53.493,167.355,68.012,167.355z" fill="#ffffff" fill-opacity="1" data-original-color="#000000ff" stroke="none" stroke-opacity="1"/>
		</g>
	</g>
</g></g></svg>