<svg xmlns="http://www.w3.org/2000/svg" viewBox="0 0 64 64" width="300" height="300" version="1.1" xmlns:xlink="http://www.w3.org/1999/xlink" xmlns:svgjs="http://svgjs.dev/svgjs"><rect width="64" height="64" x="0" y="0" shape="true" transform="matrix(1,0,0,1,0,0)" fill-opacity="1" fill="#ffffff"/><g width="100%" height="100%" transform="matrix(1,0,0,1,0,0)"><g id="_19-Yellow_Card" data-name="19-Yellow Card"><path d="M4.49,23.14A1,1,0,0,0,5,25a1.03,1.03,0,0,0,.51-.14l5-3a1,1,0,0,0-1.02-1.72ZM59.51,8.86l-5,3A1.03,1.03,0,0,1,54,12a1,1,0,0,1-.51-1.86l5-3a1,1,0,0,1,1.02,1.72ZM10,12a1.03,1.03,0,0,1-.51-.14l-5-3A1,1,0,0,1,5.51,7.14l5,3A1,1,0,0,1,10,12Zm0,5H4a1,1,0,0,1,0-2h6a1,1,0,0,1,0,2ZM5.63,33.95A8.9744,8.9744,0,0,0,3,40.31V53a16.2605,16.2605,0,0,0,2.17,8.55A.9967.9967,0,0,0,6,62a.9385.9385,0,0,0,.55-.17.9879.9879,0,0,0,.28-1.38A14.7948,14.7948,0,0,1,5,53V40.31a6.9362,6.9362,0,0,1,2.05-4.94L15,27.41V35.6L9.29,41.37a1.0006,1.0006,0,0,0,1.42,1.41l8.75-8.84A3.13,3.13,0,0,1,21.71,33h.01a3.1557,3.1557,0,0,1,2.24.93l.07.07a3.3158,3.3158,0,0,1,.98,2.35,3.2743,3.2743,0,0,1-.97,2.3c-3.5,3.47-8.75,8.71-8.75,8.71a1.0023,1.0023,0,0,0-.21,1.09.9873.9873,0,0,0,.92.62A5.9518,5.9518,0,0,1,22,55a1,1,0,0,0,2,0,7.8533,7.8533,0,0,0-1.79-5h8.76a12.0964,12.0964,0,0,1-2.68,7.3A1.0087,1.0087,0,0,0,28,58v3a1,1,0,0,0,2,0V58.38A14.46,14.46,0,0,0,32.95,50H44a5.0018,5.0018,0,0,0,5-5V7a5.0018,5.0018,0,0,0-5-5H20a5.0018,5.0018,0,0,0-5,5V24.59ZM29,36a3,3,0,1,1,3,3A2.996,2.996,0,0,1,29,36ZM27.98,17.01a4.0214,4.0214,0,1,1,7.95.87l-2.11,9.65a1.8617,1.8617,0,0,1-3.64,0l-2.11-9.65A4.2838,4.2838,0,0,1,27.98,17.01Zm26.53,3.13,5,3A1,1,0,0,1,59,25a1.03,1.03,0,0,1-.51-.14l-5-3a1,1,0,1,1,1.02-1.72ZM54,15h6a1,1,0,0,1,0,2H54a1,1,0,0,1,0-2Z" fill="#6f6f6f" fill-opacity="1" data-original-color="#000000ff" stroke="none" stroke-opacity="1"/></g></g></svg>